<svg role="img" xmlns="http://www.w3.org/2000/svg" fill-rule="evenodd" stroke-linejoin="round" stroke-miterlimit="1.414" clip-rule="evenodd" viewBox="0 0 32 32"><title>Award icon</title><path d="M24 30H8v-.002A3.998 3.998 0 0 1 11.998 26H20a4 4 0 0 1 4 4zm0-26h6v5.003a7.122 7.122 0 0 1-.396 2.323 7.029 7.029 0 0 1-1.479 2.443 7.037 7.037 0 0 1-2.718 1.806 6.984 6.984 0 0 1-1.648.382A8.019 8.019 0 0 1 19 21.418V24h-6v-2.582a8.015 8.015 0 0 1-4.759-5.46 7.049 7.049 0 0 1-1.887-.476 7.019 7.019 0 0 1-3.958-4.156A7.122 7.122 0 0 1 2 9.003V4h6V2h16v2zm-8 2l1.355 3.147 3.411.316-2.573 2.261L19 15l-3-1.683L13 15l.807-3.276-2.573-2.261 3.411-.316L16 6zm8 0v7.9a5.083 5.083 0 0 0 1.54-.592 5.036 5.036 0 0 0 2.197-2.704c.176-.519.26-1.06.263-1.607V6h-4zM4 6c0 1.043-.018 2.087.002 3.129a5.08 5.08 0 0 0 .367 1.761 5.046 5.046 0 0 0 2.302 2.536c.416.219.86.375 1.32.472L8 13.9V6H4z"/></svg>
